<svg width="122" height="53" viewBox="0 0 122 53" fill="none" xmlns="http://www.w3.org/2000/svg">
<path d="M2.42064 10.2729H27.3065C27.6179 10.2729 27.8869 10.3861 28.1133 10.6126C28.3398 10.8391 28.4531 11.1081 28.4531 11.4195V18.2567C28.4531 18.5682 28.3398 18.8371 28.1133 19.0636C27.8869 19.2901 27.6179 19.4034 27.3065 19.4034H20.2569V38.8534C20.2569 39.1648 20.1437 39.4338 19.9172 39.6603C19.6907 39.8868 19.4217 40 19.1103 40H10.6168C10.3054 40 10.0364 39.8868 9.80994 39.6603C9.58345 39.4338 9.47021 39.1648 9.47021 38.8534V19.4034H2.42064C2.10921 19.4034 1.84025 19.2901 1.61376 19.0636C1.38726 18.8371 1.27402 18.5682 1.27402 18.2567V11.4195C1.27402 11.1081 1.38726 10.8391 1.61376 10.6126C1.84025 10.3861 2.10921 10.2729 2.42064 10.2729ZM81.4231 10.2729H89.1096C89.4211 10.2729 89.69 10.3861 89.9165 10.6126C90.143 10.8391 90.2563 11.1081 90.2563 11.4195V38.8534C90.2563 39.1648 90.143 39.4338 89.9165 39.6603C89.69 39.8868 89.4211 40 89.1096 40H82.3998C81.6637 40 81.0833 39.6744 80.6587 39.0233L73.4817 28.1941V38.8534C73.4817 39.1648 73.3684 39.4338 73.1419 39.6603C72.9155 39.8868 72.6465 40 72.3351 40H64.6485C64.3371 40 64.0681 39.8868 63.8416 39.6603C63.6151 39.4338 63.5019 39.1648 63.5019 38.8534V11.4195C63.5019 11.1081 63.6151 10.8391 63.8416 10.6126C64.0681 10.3861 64.3371 10.2729 64.6485 10.2729H71.3583C72.151 10.2729 72.7314 10.5985 73.0995 11.2496L80.2765 23.0131V11.4195C80.2765 11.1081 80.3897 10.8391 80.6162 10.6126C80.8427 10.3861 81.1116 10.2729 81.4231 10.2729ZM104.473 31.7189H117.553C117.864 31.7189 118.133 31.8321 118.36 32.0586C118.586 32.2851 118.699 32.5541 118.699 32.8655V38.8534C118.699 39.1648 118.586 39.4338 118.36 39.6603C118.133 39.8868 117.864 40 117.553 40H95.4273C95.1159 40 94.8469 39.8868 94.6204 39.6603C94.3939 39.4338 94.2807 39.1648 94.2807 38.8534V11.4195C94.2807 11.1081 94.3939 10.8391 94.6204 10.6126C94.8469 10.3861 95.1159 10.2729 95.4273 10.2729H117.213C117.524 10.2729 117.793 10.3861 118.02 10.6126C118.246 10.8391 118.36 11.1081 118.36 11.4195V17.4074C118.36 17.7188 118.246 17.9878 118.02 18.2143C117.793 18.4408 117.524 18.554 117.213 18.554H104.473V21.2295H116.279C116.59 21.2295 116.859 21.3427 117.086 21.5692C117.312 21.7957 117.425 22.0646 117.425 22.3761V27.8968C117.425 28.2082 117.312 28.4772 117.086 28.7037C116.859 28.9302 116.59 29.0434 116.279 29.0434H104.473V31.7189Z" fill="black"/>
<path d="M45.1254 40.4128C53.5486 40.4989 60.3975 30.0798 60.4835 21.6551L60.5127 18.7974C60.5163 18.4436 60.4213 18.0957 60.2384 17.7928C60.0554 17.49 59.7918 17.244 59.4769 17.0826L58.625 16.6457C58.5418 13.0669 55.6336 10.1734 52.0269 10.1365L50.598 10.1219C49.8089 10.1139 49.1626 10.7471 49.1546 11.5362L49.0476 22.0147C49.0395 22.8039 49.6727 23.4501 50.4619 23.4582L51.8907 23.4728C53.7567 23.4918 55.4512 22.7423 56.6741 21.5194L56.6731 21.6162C56.6088 27.9193 51.4285 36.9772 45.1254 36.9128C38.8223 36.8485 33.7467 27.6859 33.811 21.3828L33.812 21.2859C35.0097 22.5335 36.6885 23.3175 38.5545 23.3366L39.9834 23.3512C40.7726 23.3592 41.4188 22.726 41.4269 21.9369L41.5339 11.4584C41.5419 10.6693 40.9087 10.023 40.1196 10.0149L38.6907 10.0004C35.084 9.96353 32.1173 12.7971 31.9611 16.3734L31.1005 16.7928C30.7824 16.9478 30.5137 17.1883 30.3246 17.4874C30.1355 17.7865 30.0335 18.1323 30.0299 18.4861L30.0007 21.3439C29.9147 29.7671 36.7007 40.3268 45.1254 40.4128Z" fill="#FCA300"/>
</svg>
